<svg width="275" height="74" viewBox="0 0 275 74" fill="none" xmlns="http://www.w3.org/2000/svg">
<path d="M0 56.2411V3.48016H3.67374V52.761H28.8303V56.2411H0ZM46.9981 56.9715C41.3009 56.9715 36.8953 55.1384 33.5947 51.6582C30.4806 48.1781 28.8159 43.2371 28.8159 36.821C28.8159 30.5911 30.2797 25.4639 33.4081 21.7976C36.5222 17.945 40.5691 16.1119 45.8931 16.1119C50.4853 16.1119 54.1591 17.7589 56.9144 20.881C59.6697 24.175 60.9469 28.5717 60.9469 34.0712V37.0072H32.4897C32.4897 42.3205 33.7812 46.5311 36.35 49.2808C38.7322 52.2168 42.4059 53.4914 46.9981 53.4914C49.1938 53.4914 51.2172 53.3052 52.8675 52.9472C54.5178 52.5748 56.7278 52.0306 59.2966 50.9278V54.408C57.1009 55.3246 55.0775 56.055 53.2406 56.4273C51.1885 56.7997 49.0933 56.9859 46.9981 56.9715ZM45.8931 19.4202C42.0328 19.4202 39.1053 20.7091 36.7088 23.0865C34.5131 25.6501 33.035 29.1302 32.6763 33.8994H56.9144C56.9144 29.3164 55.9959 25.8363 53.9725 23.2727C52.1356 20.6948 49.3803 19.4202 45.8931 19.4202ZM80.0475 16.298C82.8028 16.298 85.3715 16.8423 87.395 17.7589C89.4184 18.8616 91.2553 20.5086 92.9056 23.0722H93.0922C92.9056 19.9644 92.9056 17.0285 92.9056 14.0925V0H96.3928V56.2411H94.0106L93.0922 50.1974C90.1503 54.5942 85.7447 56.9715 80.234 56.9715C74.7234 56.9715 70.6909 55.3246 67.7491 51.8444C64.8072 48.5504 63.53 43.5951 63.53 37.1933C63.53 30.4192 64.9937 25.2777 67.7491 21.6257C70.5044 17.9594 74.7234 16.298 80.0475 16.298ZM80.0475 19.4202C75.8284 19.4202 72.5278 20.881 70.3178 24.0031C68.1222 26.939 67.0172 31.3358 67.0172 37.1933C67.0172 48.3642 71.4228 53.8638 80.0475 53.8638C84.4531 53.8638 87.7537 52.5748 89.7772 50.0112C91.8006 47.4477 92.8912 43.2371 92.8912 37.179V36.6348C92.8912 30.5911 91.7863 26.1943 89.7772 23.6307C87.9403 20.6948 84.6397 19.4202 80.0475 19.4202ZM134.565 17.0428V19.6063L126.486 20.1506C128.682 22.9003 129.787 25.8363 129.787 28.9441C129.787 32.7966 128.495 35.7182 125.926 38.1099C123.357 40.4873 120.057 41.5901 115.823 41.5901C113.987 41.5901 112.709 41.5901 112.15 41.4039C110.686 42.1343 109.581 43.0509 108.849 43.9675C108.117 45.0703 107.744 45.9868 107.744 47.2615C107.744 48.5361 108.289 49.4527 109.208 50.0112C110.126 50.5555 111.777 50.9278 113.987 50.9278H120.774C124.993 50.9278 128.294 51.8444 130.504 53.4914C132.714 55.1384 133.991 57.702 133.991 61.1821C133.991 65.3927 132.341 68.5148 129.04 70.706C125.74 72.8972 120.961 74 114.718 74C109.768 74 105.907 73.0834 103.152 71.0641C100.397 69.2309 99.1194 66.4811 99.1194 63.1871C99.1194 60.4374 100.038 58.2462 101.688 56.413C103.338 54.5798 105.721 53.4771 108.476 52.7467C107.371 52.2024 106.28 51.4577 105.721 50.5554C105.003 49.6675 104.616 48.5791 104.616 47.4476C104.616 44.8841 106.266 42.5067 109.567 40.4873C107.371 39.5707 105.534 38.1099 104.243 36.0906C102.951 34.0712 102.406 31.6938 102.406 29.1302C102.406 25.2777 103.697 21.9837 106.079 19.6063C108.648 17.229 111.949 16.1262 116.182 16.1262C118.751 16.1262 120.774 16.3124 122.238 16.8566H134.537V17.0428H134.565ZM102.621 62.8434C102.621 68.1568 106.653 70.9065 114.733 70.9065C125.008 70.9065 130.16 67.6125 130.16 61.0103C130.16 58.6329 129.428 56.9859 127.777 55.8831C126.127 54.7803 123.558 54.2361 119.885 54.2361H113.456C106.295 54.408 102.621 57.1577 102.621 62.8434ZM105.749 29.1302C105.749 32.238 106.668 34.4436 108.505 36.2768C110.342 37.9237 112.724 38.8403 115.852 38.8403C119.153 38.8403 121.722 37.9237 123.372 36.2768C125.209 34.6298 125.941 32.2524 125.941 29.1302C125.941 25.8363 125.022 23.2727 123.185 21.6257C121.348 19.9787 118.966 19.0621 115.666 19.0621C112.552 19.0621 109.968 19.9787 108.318 21.8119C106.481 23.4446 105.749 26.0081 105.749 29.1302Z" transform="translate(82.9756)" fill="black"/>
<path d="M235.349 55.1384C229.652 55.1384 225.247 53.3052 221.946 49.825C218.832 46.3449 217.167 41.4039 217.167 34.9878C217.167 28.7579 218.631 23.6307 221.759 19.9644C224.873 16.1119 228.92 14.2787 234.244 14.2787C238.837 14.2787 242.51 15.9257 245.266 19.0478C248.021 22.3418 249.298 26.7385 249.298 32.238V35.174H221.027C221.027 40.4873 222.319 44.6979 224.888 47.4476C227.27 50.3836 230.944 51.6582 235.536 51.6582C237.732 51.6582 239.755 51.472 241.405 51.114C243.056 50.7416 245.266 50.1974 247.834 49.0946V52.5748C245.639 53.4914 243.615 54.2218 241.778 54.5942C239.755 54.9665 237.732 55.1384 235.349 55.1384ZM234.431 17.587C230.571 17.587 227.643 18.8759 225.247 21.2533C223.051 23.8169 221.573 27.2971 221.214 32.0662H245.452C245.452 27.4833 244.534 24.0031 242.51 21.4395C240.673 18.8616 237.918 17.587 234.431 17.587ZM269.676 14.4649C271.326 14.4649 273.163 14.6511 275 15.0091L274.268 18.4893C272.575 18.1169 270.853 17.9307 269.131 17.945C265.83 17.945 263.075 19.4058 260.865 22.1556C258.669 25.0915 257.564 28.5717 257.564 32.9684V54.408H253.89V15.2096H257.004L257.378 22.3561H257.564C259.214 19.4202 260.865 17.4151 262.702 16.3124C264.912 15.0234 267.107 14.4649 269.676 14.4649ZM47.9166 0H21.655V35.174H56.9V9.15154C56.9144 4.21057 52.8675 0 47.9166 0ZM13.59 0H9.18437C4.23342 0 0 4.02438 0 9.16586V13.5626H13.59V0ZM0 21.7976H13.59V35.3602H0V21.7976ZM43.3244 56.9715H47.73C52.6809 56.9715 56.9144 52.9472 56.9144 47.8057V43.4233H43.3244V56.9715ZM21.655 43.4233H35.245V56.9859H21.655V43.4233ZM0 43.4233V47.82C0 52.761 4.03251 56.9859 9.18437 56.9859H13.59V43.4233H0Z" transform="translate(0 1.83301)" fill="black"/>
</svg>
