<svg
    class="wallet-icon ledger"
    width="40"
    height="40"
    view-box="0 0 40 40"
    fill="none"
    xmlns="http://www.w3.org/2000/svg"
  >
    <circle cx="20" cy="20" r="19.5" stroke="#4C4C4C" />
    <path
      fill="#4C4C4C"
      fill-rule="evenodd"
      clip-rule="evenodd"
      d="M20 39C30.4934 39 39 30.4934 39 20C39 9.50659 30.4934 1 20 1C9.50659 1 1 9.50659 1 20C1 30.4934 9.50659 39 20 39ZM20 40C31.0457 40 40 31.0457 40 20C40 8.9543 31.0457 0 20 0C8.9543 0 0 8.9543 0 20C0 31.0457 8.9543 40 20 40Z"
    />
    <path
      fill="#4C4C4C"
      d="M17.5105 21.4237C20.973 21.4237 24.4282 21.4237 27.9784 21.4237C27.9784 18.7185 28.0417 16.0498 27.9516 13.3884C27.9078 12.1417 26.8851 11.0874 25.6822 11.0484C22.9794 10.9583 20.2742 11.0216 17.5105 11.0216C17.5105 14.5279 17.5105 17.9247 17.5105 21.4237ZM11.0457 17.5351C11.0457 18.8524 11.0457 20.1502 11.0457 21.4627C12.3947 21.4627 13.6901 21.4627 14.9757 21.4627C14.9757 20.0942 14.9757 18.8378 14.9757 17.5351C13.6219 17.5351 12.3801 17.5351 11.0457 17.5351ZM21.5355 28.003C21.5355 26.8391 21.5793 25.7896 21.5063 24.7499C21.4868 24.4698 21.1313 23.9999 20.9049 23.9829C19.797 23.9025 18.6793 23.9463 17.5154 23.9463C17.5154 25.3903 17.5154 26.6613 17.5154 28.003C18.8425 28.003 20.1111 28.003 21.5355 28.003ZM15.0805 11.102C11.9564 10.7148 10.6269 12.0565 11.0896 15.1148C12.1877 15.1148 13.3127 15.1513 14.4328 15.0855C14.6616 15.0709 15.0366 14.6789 15.0512 14.4452C15.1194 13.3567 15.0805 12.2659 15.0805 11.102ZM15.0805 27.9543C15.0805 26.7879 15.117 25.6971 15.0512 24.6135C15.0366 24.3797 14.6592 23.9902 14.4303 23.9755C13.3102 23.9098 12.1853 23.9463 11.0871 23.9463C10.6342 27.0168 11.9613 28.3536 15.0805 27.9543ZM27.881 23.9463C26.7877 23.9463 25.6676 23.9171 24.55 23.9707C24.3308 23.9804 23.9534 24.3043 23.9437 24.4966C23.8852 25.6484 23.9145 26.805 23.9145 27.9348C26.9971 28.3219 28.4045 26.8926 27.881 23.9463Z"
    />
  </svg>