<?xml version="1.0" standalone="no"?>
<!DOCTYPE svg PUBLIC "-//W3C//DTD SVG 20010904//EN"
 "http://www.w3.org/TR/2001/REC-SVG-20010904/DTD/svg10.dtd">
<svg version="1.0" xmlns="http://www.w3.org/2000/svg"
 width="512.000000pt" height="512.000000pt" viewBox="0 0 512.000000 512.000000"
 preserveAspectRatio="xMidYMid meet">
<metadata>
Created by potrace 1.11, written by Peter Selinger 2001-2013
</metadata>
<g transform="translate(0.000000,512.000000) scale(0.100000,-0.100000)"
fill="#000000" stroke="none">
<path d="M2352 4650 c-345 -36 -702 -167 -977 -358 -486 -337 -800 -839 -892
-1423 -27 -173 -24 -482 6 -654 65 -371 224 -718 456 -994 341 -405 785 -656
1306 -738 173 -27 482 -24 654 6 290 51 575 163 808 318 502 333 830 847 924
1444 27 173 24 482 -6 654 -65 371 -224 718 -456 994 -339 402 -788 657 -1295
736 -125 19 -412 27 -528 15z m574 -304 c367 -78 687 -255 944 -522 248 -259
402 -550 477 -903 25 -116 27 -144 27 -361 0 -217 -2 -245 -27 -361 -79 -374
-254 -691 -523 -949 -259 -248 -550 -402 -903 -477 -115 -25 -146 -27 -356
-28 -202 0 -244 3 -344 23 -384 78 -712 257 -976 533 -247 259 -397 544 -472
898 -25 116 -27 144 -27 361 0 217 2 245 27 361 80 377 255 693 528 954 289
276 629 439 1029 495 36 5 157 7 270 5 172 -3 224 -8 326 -29z"/>
<path d="M2496 3470 c-102 -31 -172 -147 -152 -253 18 -95 118 -177 216 -177
97 0 198 83 216 177 30 159 -125 299 -280 253z"/>
<path d="M1822 2548 l3 -143 282 -3 283 -2 2 -378 3 -377 164 -3 c125 -2 166
1 173 10 4 7 8 178 8 381 l0 367 273 0 c199 0 276 3 285 12 13 13 18 232 6
262 -6 14 -81 16 -745 16 l-740 0 3 -142z"/>
</g>
</svg>
