<svg width="18" height="18" viewBox="0 0 18 18" fill="none" xmlns="http://www.w3.org/2000/svg">
<circle cx="9" cy="9" r="9" fill="#FFFDFC"/>
<path fill-rule="evenodd" clip-rule="evenodd" d="M8.99972 15.8572C12.7868 15.8572 15.8569 12.7871 15.8569 9.00003C15.8569 5.21293 12.7868 2.14288 8.99972 2.14288C5.21263 2.14288 2.14258 5.21293 2.14258 9.00003C2.14258 12.7871 5.21263 15.8572 8.99972 15.8572ZM8.22425 11.5728L5.99899 9.29327C5.76752 9.05615 5.77209 8.67627 6.00921 8.4448C6.24633 8.21333 6.6262 8.2179 6.85768 8.45502L8.22425 9.85493L11.1418 6.86617C11.3733 6.62905 11.7532 6.62448 11.9903 6.85595C12.2274 7.08742 12.232 7.4673 12.0005 7.70442L8.22425 11.5728Z" fill="#0B8F78"/>
</svg>
