<svg width="34" height="30" viewBox="0 0 69 60" fill="none" xmlns="http://www.w3.org/2000/svg">
<path d="M30.7888 1.88976C32.2435 -0.629925 35.8804 -0.629917 37.3351 1.88977L67.6119 54.3307C69.0667 56.8504 67.2482 60 64.3388 60H3.78516C0.875678 60 -0.94274 56.8504 0.512 54.3307L30.7888 1.88976Z" fill="#FFFDFC"/>
<path d="M30.3297 17.9531H36.8967L35.6683 40.583H31.5581L30.3297 17.9531ZM33.5896 51.3075C32.5817 51.3075 31.7313 50.961 31.0384 50.2681C30.3455 49.5752 29.999 48.7248 29.999 47.7169C29.999 46.709 30.3455 45.8586 31.0384 45.1657C31.7313 44.4413 32.5817 44.0791 33.5896 44.0791C34.5974 44.0791 35.4478 44.4413 36.1408 45.1657C36.8652 45.8586 37.2274 46.709 37.2274 47.7169C37.2274 48.7248 36.8652 49.5752 36.1408 50.2681C35.4478 50.961 34.5974 51.3075 33.5896 51.3075Z" fill="#9C3131"/>
</svg>
